<svg width="400" height="400" viewBox="0 0 400 400" fill="none" xmlns="http://www.w3.org/2000/svg">
  <!-- Shield Background -->
  <defs>
    <linearGradient id="shieldGradient" x1="200" y1="50" x2="200" y2="350" gradientUnits="userSpaceOnUse">
      <stop offset="0%" stop-color="#6366f1"/>
      <stop offset="100%" stop-color="#4f46e5"/>
    </linearGradient>
    <linearGradient id="accentGradient" x1="200" y1="100" x2="200" y2="300" gradientUnits="userSpaceOnUse">
      <stop offset="0%" stop-color="#8b5cf6"/>
      <stop offset="100%" stop-color="#7c3aed"/>
    </linearGradient>
  </defs>

  <!-- Main Shield Shape -->
  <path d="M200 50 L320 90 L320 190 C320 250 280 310 200 350 C120 310 80 250 80 190 L80 90 Z"
        fill="url(#shieldGradient)"
        stroke="#312e81"
        stroke-width="3"/>

  <!-- Inner Shield Accent -->
  <path d="M200 80 L290 110 L290 190 C290 235 260 280 200 310 C140 280 110 235 110 190 L110 110 Z"
        fill="none"
        stroke="#a5b4fc"
        stroke-width="2"
        opacity="0.4"/>

  <!-- Blockchain Blocks (left side) -->
  <g opacity="0.9">
    <rect x="130" y="140" width="35" height="35" fill="#818cf8" stroke="#312e81" stroke-width="2" rx="4"/>
    <rect x="130" y="185" width="35" height="35" fill="#a78bfa" stroke="#312e81" stroke-width="2" rx="4"/>
    <rect x="130" y="230" width="35" height="35" fill="#c4b5fd" stroke="#312e81" stroke-width="2" rx="4"/>

    <!-- Connection lines between blocks -->
    <line x1="147.5" y1="175" x2="147.5" y2="185" stroke="#fbbf24" stroke-width="2"/>
    <line x1="147.5" y1="220" x2="147.5" y2="230" stroke="#fbbf24" stroke-width="2"/>
  </g>

  <!-- Security Lock/Check Symbol (right side) -->
  <g transform="translate(215, 160)">
    <!-- Checkmark in a circle -->
    <circle cx="30" cy="40" r="35" fill="#10b981" stroke="#065f46" stroke-width="2"/>
    <path d="M 20 40 L 27 47 L 42 30"
          stroke="white"
          stroke-width="4"
          stroke-linecap="round"
          stroke-linejoin="round"
          fill="none"/>
  </g>

  <!-- Code Brackets -->
  <g opacity="0.8">
    <path d="M 155 110 L 145 120 L 155 130"
          stroke="#fbbf24"
          stroke-width="3"
          stroke-linecap="round"
          stroke-linejoin="round"
          fill="none"/>
    <path d="M 245 110 L 255 120 L 245 130"
          stroke="#fbbf24"
          stroke-width="3"
          stroke-linecap="round"
          stroke-linejoin="round"
          fill="none"/>
  </g>

  <!-- Scan Lines Effect -->
  <g opacity="0.15">
    <line x1="100" y1="150" x2="300" y2="150" stroke="#fff" stroke-width="1"/>
    <line x1="100" y1="170" x2="300" y2="170" stroke="#fff" stroke-width="1"/>
    <line x1="100" y1="190" x2="300" y2="190" stroke="#fff" stroke-width="1"/>
    <line x1="100" y1="210" x2="300" y2="210" stroke="#fff" stroke-width="1"/>
    <line x1="100" y1="230" x2="300" y2="230" stroke="#fff" stroke-width="1"/>
    <line x1="100" y1="250" x2="300" y2="250" stroke="#fff" stroke-width="1"/>
  </g>

  <!-- Magnifying Glass (analysis symbol) -->
  <g transform="translate(180, 240)">
    <circle cx="20" cy="20" r="12" fill="none" stroke="#fbbf24" stroke-width="3"/>
    <line x1="29" y1="29" x2="37" y2="37" stroke="#fbbf24" stroke-width="3" stroke-linecap="round"/>
  </g>
</svg>
